<?xml version="1.0" encoding="utf-8"?>
<!-- Generator: Adobe Illustrator 21.0.2, SVG Export Plug-In . SVG Version: 6.00 Build 0)  -->
<svg version="1.1" id="Layer_1" xmlns="http://www.w3.org/2000/svg" xmlns:xlink="http://www.w3.org/1999/xlink" x="0px" y="0px"
	 viewBox="0 0 70.9 45.4" style="enable-background:new 0 0 70.9 45.4;" xml:space="preserve">
<style type="text/css">
	.st0{fill:#0066CB;}
	.st1{fill:#D52339;}
</style>
<path class="st0" d="M12,0l8.5,32.8L29,0h11.9v45.3h-9.2V33.1l0.8-18.9l-9.1,31.2h-6.2L8.4,14.2l0.8,18.9v12.2H0V0H12z"/>
<path class="st1" d="M41.8,45.3V0.1h14c4.7,0,8.3,1,10.8,3.1s3.7,5.2,3.7,9.2c0,2.3-0.5,4.3-1.5,5.9s-2.4,2.9-4.2,3.6
	c2,0.6,3.6,1.8,4.7,3.5c1.1,1.8,1.6,3.9,1.6,6.5c0,4.4-1.2,7.7-3.6,9.9c-2.4,2.2-5.9,3.4-10.5,3.4h-15V45.3z M51,19h4.8
	c3.6,0,5.4-1.8,5.4-5.6c0-2.1-0.4-3.5-1.2-4.4c-0.8-0.9-2.2-1.3-4-1.3h-4.8L51,19L51,19z M51,25.7v12.1h5.8c1.6,0,2.9-0.5,3.7-1.5
	s1.3-2.5,1.3-4.3c0-4.1-1.5-6.1-4.4-6.3L51,25.7L51,25.7z"/>
</svg>
