<?xml version="1.0" encoding="utf-8"?>
<!-- Generator: Adobe Illustrator 21.0.2, SVG Export Plug-In . SVG Version: 6.00 Build 0)  -->
<svg version="1.1" id="Layer_1" xmlns="http://www.w3.org/2000/svg" xmlns:xlink="http://www.w3.org/1999/xlink" x="0px" y="0px"
	 viewBox="0 0 1000 244" style="enable-background:new 0 0 1000 244;" xml:space="preserve">
<style type="text/css">
	.st0{fill:#D52339;}
	.st1{fill:#00A79D;}
	.st2{enable-background:new    ;}
	.st3{fill:#0066CB;}
	.st4{fill:#FFFFFF;}
</style>
<g>
	<polygon class="st0" points="944.1,167.2 423.4,167.2 466.4,15.6 987.1,15.6 	"/>
	<rect x="12.9" y="175.1" class="st1" width="931.6" height="57.7"/>
	<g class="st2">
		<path class="st3" d="M53.6,34.6L75.8,120l22.2-85.4h31.1v118h-23.9v-31.9l2.2-49.2l-23.6,81.2H67.7L44.1,71.5l2.2,49.2v31.9H22.4
			v-118H53.6z"/>
		<path class="st3" d="M206.1,128.5h-32.5l-6.3,24.2h-25.2l36.9-118h21.8l37.1,118h-25.5L206.1,128.5z M178.8,108.7h22.1l-11-42.1
			L178.8,108.7z"/>
		<path class="st3" d="M284.7,109.5h-11.8v43.1H249v-118h38c11.9,0,21.2,3.1,27.7,9.3c6.5,6.2,9.8,15,9.8,26.4
			c0,15.7-5.7,26.6-17.1,32.9l20.7,48.3v1.1h-25.6L284.7,109.5z M272.9,89.7h13.5c4.8,0,8.3-1.6,10.7-4.7c2.4-3.2,3.6-7.4,3.6-12.7
			c0-11.8-4.6-17.8-13.9-17.8h-13.9V89.7z"/>
		<path class="st3" d="M421.2,139.3c-4.6,5-10.2,8.7-16.9,11.2c-6.7,2.5-14,3.8-21.9,3.8c-13.6,0-24.1-4.2-31.6-12.6
			c-7.5-8.4-11.4-20.6-11.6-36.7V83.8c0-16.3,3.6-28.8,10.7-37.6c7.1-8.8,17.5-13.2,31.1-13.2c12.8,0,22.5,3.2,29,9.5
			c6.5,6.3,10.3,16.2,11.3,29.8H398c-0.6-7.5-2.2-12.6-4.7-15.4c-2.5-2.7-6.4-4.1-11.7-4.1c-6.4,0-11.1,2.4-14,7.1
			c-2.9,4.7-4.4,12.2-4.5,22.5v21.4c0,10.8,1.6,18.6,4.8,23.5c3.2,4.9,8.5,7.3,15.9,7.3c4.7,0,8.5-0.9,11.4-2.8l2.1-1.5v-21.6h-16.7
			v-18h40.6V139.3z"/>
	</g>
	<g class="st2">
		<path class="st4" d="M477,152.7v-118h36.5c12.3,0,21.7,2.7,28.1,8.2c6.4,5.5,9.6,13.5,9.6,24.1c0,6-1.3,11.2-4,15.5
			c-2.6,4.3-6.3,7.5-10.9,9.5c5.3,1.5,9.4,4.6,12.2,9.1c2.9,4.6,4.3,10.2,4.3,16.9c0,11.5-3.1,20.1-9.4,25.9
			c-6.3,5.8-15.4,8.8-27.4,8.8H477z M500.8,84h12.4c9.4,0,14-4.8,14-14.5c0-5.4-1.1-9.2-3.2-11.5c-2.2-2.3-5.7-3.5-10.5-3.5h-12.6
			V84z M500.8,101.4v31.5H516c4.3,0,7.5-1.3,9.7-4c2.2-2.6,3.3-6.4,3.3-11.3c0-10.6-3.8-16-11.5-16.3H500.8z"/>
		<path class="st4" d="M653.2,104.3c0,15.8-3.7,28.1-11.2,36.9c-7.5,8.8-17.9,13.1-31.2,13.1c-13.2,0-23.6-4.3-31.2-13
			c-7.6-8.7-11.4-20.8-11.5-36.4V84.7c0-16.2,3.8-28.9,11.3-38c7.5-9.1,17.9-13.7,31.3-13.7c13.1,0,23.5,4.5,31.1,13.4
			c7.6,8.9,11.4,21.5,11.5,37.7V104.3z M629.3,84.5c0-10.6-1.5-18.6-4.5-23.8c-3-5.2-7.7-7.8-14.1-7.8c-6.3,0-11,2.5-14,7.5
			c-3,5-4.6,12.6-4.7,22.8v21c0,10.3,1.5,17.9,4.6,22.8c3.1,4.9,7.8,7.3,14.3,7.3c6.2,0,10.8-2.4,13.9-7.2c3-4.8,4.6-12.2,4.6-22.3
			V84.5z"/>
		<path class="st4" d="M753.4,104.3c0,15.8-3.7,28.1-11.2,36.9c-7.5,8.8-17.9,13.1-31.2,13.1c-13.2,0-23.6-4.3-31.2-13
			c-7.6-8.7-11.4-20.8-11.5-36.4V84.7c0-16.2,3.8-28.9,11.3-38c7.5-9.1,17.9-13.7,31.3-13.7c13.1,0,23.5,4.5,31.1,13.4
			c7.6,8.9,11.4,21.5,11.5,37.7V104.3z M729.5,84.5c0-10.6-1.5-18.6-4.5-23.8c-3-5.2-7.7-7.8-14.1-7.8c-6.3,0-11,2.5-14,7.5
			c-3,5-4.6,12.6-4.7,22.8v21c0,10.3,1.5,17.9,4.6,22.8c3.1,4.9,7.8,7.3,14.3,7.3c6.2,0,10.8-2.4,13.9-7.2c3-4.8,4.6-12.2,4.6-22.3
			V84.5z"/>
		<path class="st4" d="M803.8,107.1l-9.4,11.8v33.7h-23.8v-118h23.8v51.5l7.5-12.7l22-38.8h29.2l-33.8,51.9l34.4,66.2h-28.3
			L803.8,107.1z"/>
		<path class="st4" d="M912.3,121.7c0-4.8-1.2-8.4-3.7-10.9c-2.5-2.5-6.9-5-13.4-7.7c-11.8-4.5-20.4-9.7-25.5-15.8
			c-5.2-6-7.8-13.1-7.8-21.4c0-9.9,3.5-17.9,10.6-24c7.1-6,16-9,26.9-9c7.2,0,13.7,1.5,19.4,4.6c5.7,3.1,10,7.4,13.1,12.9
			c3.1,5.6,4.6,11.9,4.6,19h-23.8c0-5.5-1.2-9.7-3.5-12.6c-2.4-2.9-5.7-4.3-10.2-4.3c-4.2,0-7.4,1.2-9.7,3.7
			c-2.3,2.5-3.5,5.8-3.5,9.9c0,3.2,1.3,6.2,3.9,8.8c2.6,2.6,7.2,5.3,13.8,8.1c11.5,4.2,19.9,9.3,25.1,15.3
			c5.2,6.1,7.8,13.8,7.8,23.1c0,10.3-3.3,18.3-9.8,24.1c-6.5,5.8-15.4,8.7-26.7,8.7c-7.6,0-14.6-1.6-20.8-4.7
			c-6.3-3.1-11.2-7.6-14.7-13.5c-3.5-5.8-5.3-12.7-5.3-20.7h23.9c0,6.8,1.3,11.8,4,14.8c2.6,3.1,7,4.6,13,4.6
			C908.1,134.9,912.3,130.5,912.3,121.7z"/>
	</g>
	<g class="st2">
		<path class="st4" d="M47.2,207.9c0,3.7-1.2,6.7-3.5,9.2c-2.3,2.4-5.3,3.6-9,3.6c-3.6,0-6.5-1.2-8.8-3.6c-2.3-2.4-3.4-5.5-3.4-9.2
			v-5.4c0-3.7,1.1-6.7,3.4-9.1c2.3-2.4,5.2-3.6,8.8-3.6c3.7,0,6.7,1.2,9,3.6c2.3,2.4,3.5,5.5,3.5,9.1V207.9z M42.2,202.4
			c0-2.5-0.7-4.6-2-6.2c-1.3-1.6-3.2-2.4-5.4-2.4c-2.2,0-3.9,0.8-5.2,2.4c-1.3,1.6-1.9,3.7-1.9,6.2v5.5c0,2.5,0.6,4.6,1.9,6.2
			c1.3,1.6,3,2.4,5.3,2.4c2.3,0,4.1-0.8,5.4-2.4c1.3-1.6,2-3.7,2-6.2V202.4z"/>
		<path class="st4" d="M86.1,220.2h-5l-13.4-22l-0.1,0v21.9h-5v-30.1h5l13.4,22l0.1,0v-21.9h5V220.2z"/>
		<path class="st4" d="M107.7,216.2h13.8v4h-18.9v-30.1h5V216.2z"/>
		<path class="st4" d="M140.9,220.2h-5v-30.1h5V220.2z"/>
		<path class="st4" d="M181.3,220.2h-5l-13.4-22l-0.1,0v21.9h-5v-30.1h5l13.4,22l0.1,0v-21.9h5V220.2z"/>
		<path class="st4" d="M216.1,206.7h-13.2v9.5h15.3v4h-20.3v-30.1H218v4h-15.1v8.5h13.2V206.7z"/>
		<path class="st4" d="M269.3,213.2h-11.8l-2.4,7H250l11.1-30.1h4.8l10.9,30.1h-5.1L269.3,213.2z M258.9,209h8.9l-4.4-12.9h-0.1
			L258.9,209z"/>
		<path class="st4" d="M312.2,210.3l0,0.1c0.1,3-0.9,5.5-3,7.4c-2,1.9-4.8,2.9-8.3,2.9c-3.5,0-6.4-1.2-8.6-3.5
			c-2.2-2.4-3.3-5.4-3.3-9.1v-5.7c0-3.7,1.1-6.7,3.3-9.1c2.2-2.4,5-3.6,8.5-3.6c3.6,0,6.4,0.9,8.4,2.8c2,1.9,3,4.4,3,7.5l0,0.1h-4.9
			c0-2-0.5-3.6-1.6-4.7c-1.1-1.1-2.7-1.7-4.8-1.7c-2.1,0-3.7,0.8-4.9,2.4c-1.2,1.6-1.8,3.7-1.8,6.1v5.8c0,2.5,0.6,4.5,1.9,6.2
			c1.2,1.6,2.9,2.4,5,2.4c2.1,0,3.7-0.6,4.7-1.7c1.1-1.1,1.6-2.7,1.6-4.7H312.2z"/>
		<path class="st4" d="M349.1,210.3l0,0.1c0.1,3-0.9,5.5-3,7.4c-2,1.9-4.8,2.9-8.3,2.9c-3.5,0-6.4-1.2-8.6-3.5
			c-2.2-2.4-3.3-5.4-3.3-9.1v-5.7c0-3.7,1.1-6.7,3.3-9.1c2.2-2.4,5-3.6,8.5-3.6c3.6,0,6.4,0.9,8.4,2.8c2,1.9,3,4.4,3,7.5l0,0.1h-4.9
			c0-2-0.5-3.6-1.6-4.7c-1.1-1.1-2.7-1.7-4.8-1.7c-2.1,0-3.7,0.8-4.9,2.4c-1.2,1.6-1.8,3.7-1.8,6.1v5.8c0,2.5,0.6,4.5,1.9,6.2
			c1.2,1.6,2.9,2.4,5,2.4c2.1,0,3.7-0.6,4.7-1.7c1.1-1.1,1.6-2.7,1.6-4.7H349.1z"/>
		<path class="st4" d="M387.6,207.9c0,3.7-1.2,6.7-3.5,9.2c-2.3,2.4-5.3,3.6-9,3.6c-3.6,0-6.5-1.2-8.8-3.6c-2.3-2.4-3.4-5.5-3.4-9.2
			v-5.4c0-3.7,1.1-6.7,3.4-9.1c2.3-2.4,5.2-3.6,8.8-3.6c3.7,0,6.7,1.2,9,3.6c2.3,2.4,3.5,5.5,3.5,9.1V207.9z M382.5,202.4
			c0-2.5-0.7-4.6-2-6.2c-1.3-1.6-3.2-2.4-5.4-2.4c-2.2,0-3.9,0.8-5.2,2.4c-1.3,1.6-1.9,3.7-1.9,6.2v5.5c0,2.5,0.6,4.6,1.9,6.2
			c1.3,1.6,3,2.4,5.3,2.4c2.3,0,4.1-0.8,5.4-2.4c1.3-1.6,2-3.7,2-6.2V202.4z"/>
		<path class="st4" d="M425.9,190.1v20.2c0,3.3-1.1,5.9-3.3,7.7s-5,2.7-8.5,2.7c-3.4,0-6.2-0.9-8.4-2.7s-3.2-4.3-3.2-7.7v-20.2h5
			v20.2c0,2.1,0.6,3.7,1.8,4.8c1.2,1.1,2.8,1.6,4.8,1.6c2.1,0,3.7-0.5,4.9-1.6c1.2-1.1,1.8-2.6,1.8-4.8v-20.2H425.9z"/>
		<path class="st4" d="M465.4,220.2h-5l-13.4-22l-0.1,0v21.9h-5v-30.1h5l13.4,22l0.1,0v-21.9h5V220.2z"/>
		<path class="st4" d="M502.5,194.2h-9.1v26.1h-5v-26.1h-9.1v-4h23.2V194.2z"/>
		<path class="st4" d="M521.8,220.2h-5v-30.1h5V220.2z"/>
		<path class="st4" d="M562.1,220.2h-5l-13.4-22l-0.1,0v21.9h-5v-30.1h5l13.4,22l0.1,0v-21.9h5V220.2z"/>
		<path class="st4" d="M601.1,216.2c-0.8,1.1-2.1,2.2-3.9,3.1c-1.8,0.9-4.2,1.4-7,1.4c-3.6,0-6.6-1.1-9-3.4
			c-2.3-2.3-3.5-5.3-3.5-8.9V202c0-3.6,1.1-6.6,3.3-8.9c2.2-2.3,5.1-3.4,8.6-3.4c3.5,0,6.3,0.9,8.3,2.6c2,1.7,3,4,3,6.8l0,0.1h-4.8
			c-0.1-1.7-0.7-3-1.8-4c-1.1-1-2.6-1.5-4.6-1.5c-2.1,0-3.8,0.8-5,2.3c-1.3,1.6-1.9,3.5-1.9,5.9v6.3c0,2.4,0.7,4.4,2.1,6
			s3.2,2.3,5.4,2.3c1.6,0,2.8-0.2,3.8-0.5c1-0.4,1.7-0.8,2.1-1.3v-6.1h-6v-3.8h11V216.2z"/>
		<path class="st4" d="M654.2,212.5c0-1.2-0.5-2.3-1.4-3.1c-0.9-0.8-2.6-1.5-4.9-2.1c-3.4-0.9-6-2-7.8-3.5c-1.8-1.5-2.7-3.4-2.7-5.7
			c0-2.4,1-4.4,3-6c2-1.6,4.6-2.4,7.8-2.4c3.3,0,6,0.9,8,2.7s3,3.9,2.9,6.4l0,0.1h-4.8c0-1.5-0.5-2.8-1.6-3.8s-2.5-1.4-4.5-1.4
			c-1.8,0-3.2,0.4-4.2,1.2c-1,0.8-1.5,1.8-1.5,3.1c0,1.1,0.5,2.1,1.6,2.8c1.1,0.8,2.8,1.5,5.3,2.1c3.2,0.9,5.7,2.1,7.4,3.6
			c1.7,1.5,2.5,3.5,2.5,5.9c0,2.5-1,4.5-3,6c-2,1.5-4.6,2.2-7.9,2.2c-3.1,0-5.9-0.8-8.3-2.5c-2.4-1.7-3.5-4-3.5-6.9l0-0.1h4.8
			c0,1.8,0.6,3.2,1.9,4.1c1.3,0.9,2.9,1.4,4.9,1.4c1.9,0,3.3-0.4,4.3-1.1C653.6,214.8,654.2,213.8,654.2,212.5z"/>
		<path class="st4" d="M697.9,207.9c0,3.7-1.2,6.7-3.5,9.2c-2.3,2.4-5.3,3.6-9,3.6c-3.6,0-6.5-1.2-8.8-3.6c-2.3-2.4-3.4-5.5-3.4-9.2
			v-5.4c0-3.7,1.1-6.7,3.4-9.1c2.3-2.4,5.2-3.6,8.8-3.6c3.7,0,6.7,1.2,9,3.6c2.3,2.4,3.5,5.5,3.5,9.1V207.9z M692.9,202.4
			c0-2.5-0.7-4.6-2-6.2c-1.3-1.6-3.2-2.4-5.4-2.4c-2.2,0-3.9,0.8-5.2,2.4c-1.3,1.6-1.9,3.7-1.9,6.2v5.5c0,2.5,0.6,4.6,1.9,6.2
			c1.3,1.6,3,2.4,5.3,2.4c2.3,0,4.1-0.8,5.4-2.4c1.3-1.6,2-3.7,2-6.2V202.4z"/>
		<path class="st4" d="M731.6,207.4h-13.2v12.8h-5v-30.1h20.3v4h-15.3v9.2h13.2V207.4z"/>
		<path class="st4" d="M768.9,194.2h-9.1v26.1h-5v-26.1h-9.1v-4h23.2V194.2z"/>
		<path class="st4" d="M790.5,212.2L790.5,212.2L790.5,212.2l6-22.1h4l6.1,22.1l0,0.1l0-0.2l4.8-22h4.9l-7.2,30.1h-4.6l-6-21.6h-0.1
			l-6,21.6h-4.6l-7.1-30.1h4.9L790.5,212.2z"/>
		<path class="st4" d="M845.8,213.2H834l-2.4,7h-5.1l11.1-30.1h4.8l10.9,30.1h-5.1L845.8,213.2z M835.4,209h8.9l-4.4-12.9h-0.1
			L835.4,209z"/>
		<path class="st4" d="M871.8,207.7v12.5h-5v-30.1h11.1c3.4,0,6,0.8,7.8,2.3c1.8,1.5,2.8,3.7,2.8,6.5c0,1.6-0.4,2.9-1.2,4
			c-0.8,1.1-2,2-3.5,2.7c1.7,0.5,2.9,1.4,3.7,2.6c0.7,1.2,1.1,2.7,1.1,4.5v2.5c0,0.9,0.1,1.7,0.3,2.6c0.2,0.8,0.6,1.5,1.1,1.9v0.5
			h-5.2c-0.6-0.5-0.9-1.2-1.1-2.2s-0.2-1.9-0.2-2.9v-2.4c0-1.5-0.4-2.8-1.3-3.7c-0.9-0.9-2.1-1.4-3.6-1.4H871.8z M871.8,203.7h5.8
			c2,0,3.5-0.4,4.4-1.2c0.9-0.8,1.4-2,1.4-3.5c0-1.5-0.5-2.7-1.4-3.6c-0.9-0.9-2.3-1.3-4.2-1.3h-6.1V203.7z"/>
		<path class="st4" d="M923,206.7h-13.2v9.5h15.3v4h-20.3v-30.1H925v4h-15.1v8.5H923V206.7z"/>
	</g>
</g>
</svg>
